<?xml version="1.0" encoding="UTF-8"?>
<svg id="_レイヤー_1" data-name="レイヤー_1" xmlns="http://www.w3.org/2000/svg" version="1.1" viewBox="0 0 128 128">
  <!-- Generator: Adobe Illustrator 29.1.0, SVG Export Plug-In . SVG Version: 2.1.0 Build 142)  -->
  <defs>
    <style>
      .st0 {
        fill: #e7049d;
      }

      .st1 {
        fill: #fff;
      }

      .st2 {
        fill: #1f1f1f;
      }

      .st3 {
        fill: #9b5c8f;
        fill-rule: evenodd;
      }

      .st4 {
        fill: #fefdfe;
      }
    </style>
  </defs>
  <g>
    <path class="st3" d="M9.8,94.5h31.9c2,0,3.6,1.6,3.6,3.6v12.2c0,2-1.6,3.6-3.6,3.6h-11.4l1.6,3.8-6.9-3.8h-15.2c-2,0-3.6-1.6-3.6-3.6v-12.2c0-2,1.6-3.6,3.6-3.6Z"/>
    <path class="st1" d="M8.1,97.8c.2-.3.6-.5,1-.5.8,0,1.3.3,1.4,1.2.5,3.3,1,6.2,1.6,8.5l3.5-6.7c.3-.6.7-.9,1.2-1,.7,0,1.1.4,1.3,1.3.4,2.1.9,3.9,1.5,5.5.4-4.1,1.1-7,2.1-8.8.2-.4.6-.7,1.1-.7s.7,0,1,.3c.3.2.5.5.5.9s0,.5-.2.8c-.6,1.2-1.1,3.1-1.6,5.8-.4,2.6-.5,4.6-.4,6.1,0,.4,0,.8-.2,1.1-.2.4-.5.5-.8.6-.4,0-.8-.2-1.3-.6-1.5-1.5-2.7-3.8-3.5-6.8-1,2-1.8,3.6-2.3,4.6-.9,1.8-1.7,2.7-2.4,2.8-.4,0-.8-.3-1.1-1.1-.8-2.1-1.7-6.1-2.6-12.1,0-.6,0-.9.2-1.2Z"/>
    <path class="st1" d="M42.5,100.3c-.6-1-1.4-1.6-2.6-1.9-.3,0-.6,0-.9,0-1.5,0-2.8.8-3.8,2.4-.8,1.4-1.2,2.9-1.2,4.5s.3,2.3.8,3.2c.6,1,1.4,1.6,2.6,1.9.3,0,.6,0,.9,0,1.6,0,2.8-.8,3.8-2.4.8-1.4,1.2-2.9,1.2-4.5s-.2-2.3-.8-3.2h0ZM40.5,104.7c-.2,1.1-.6,1.8-1.2,2.4-.5.4-.9.6-1.3.5-.4,0-.7-.4-.9-1-.2-.5-.3-1-.3-1.5s0-.8,0-1.2c0-.7.4-1.3.8-1.9.5-.8,1.1-1.1,1.7-1,.4,0,.7.4.9,1,.2.5.3,1,.3,1.5s0,.9,0,1.2h0Z"/>
    <path class="st1" d="M32.5,100.3c-.6-1-1.4-1.6-2.6-1.9-.3,0-.6,0-.9,0-1.5,0-2.8.8-3.8,2.4-.8,1.4-1.2,2.9-1.2,4.5s.3,2.3.8,3.2c.6,1,1.4,1.6,2.6,1.9.3,0,.6,0,.9,0,1.6,0,2.8-.8,3.8-2.4.8-1.4,1.2-2.9,1.2-4.5s-.3-2.3-.8-3.2h0ZM30.5,104.7c-.2,1.1-.6,1.8-1.2,2.4-.5.4-.9.6-1.3.5s-.7-.4-.9-1c-.2-.5-.3-1-.3-1.5s0-.8.1-1.2c.1-.7.4-1.3.8-1.9.5-.8,1.1-1.1,1.7-1,.4,0,.7.4.9,1,.2.5.3,1,.3,1.5s0,.9-.1,1.2h0Z"/>
    <path d="M49.4,100.2c-1.1,1.1-1.6,2.4-1.6,4s.5,3.2,1.6,4.2c1.1,1.1,2.4,1.6,4.1,1.6s1.1,0,1.7-.3v-2.6c-.6.2-1,.2-1.5.2-.8,0-1.5-.3-2-.8-.5-.6-.8-1.3-.8-2.3s.3-1.7.8-2.2c.5-.6,1.1-.9,1.9-.9s1,0,1.6.2v-2.6c-.5,0-1.1-.2-1.7-.2-1.7.1-3,.6-4.1,1.7ZM60.5,98.6c-1.5,0-2.6.5-3.5,1.5-.8,1-1.2,2.4-1.2,4.1s.4,3.4,1.2,4.4,2,1.5,3.6,1.5,2.7-.5,3.5-1.5c.8-1,1.2-2.4,1.2-4.3s-.4-3.2-1.2-4.2c-.8-1-2-1.5-3.6-1.5ZM61.7,106.9c-.3.4-.7.7-1.3.7s-.9-.2-1.2-.7c-.3-.4-.4-1.3-.4-2.7,0-2.1.5-3.1,1.6-3.1s1.7,1.1,1.7,3.2c.1,1.2,0,2.1-.4,2.6ZM73.3,98.9l-.6,2.4c0,.6-.3,1.3-.4,1.9l-.3,1.7c-.3-1.7-.7-3.7-1.2-6.1h-3.8l-1.4,10.9h2.8l.8-7.5,1.9,7.5h2l1.8-7.5.8,7.5h2.9l-1.5-10.9h-3.8ZM86.6,98.9l-.6,2.4c0,.6-.3,1.3-.4,1.9l-.3,1.7c-.3-1.7-.7-3.7-1.2-6.1h-3.7l-1.4,10.9h2.8l.8-7.5,1.9,7.5h2l1.8-7.5.8,7.5h2.9l-1.5-10.9h-3.9ZM95.6,105.5h2.6v-2.3h-2.6v-2h3v-2.3h-6v10.9h6v-2.3h-3v-2ZM106.9,103.7c.3-.5.5-1,.5-1.5,0-1-.4-1.8-1.2-2.4-.8-.6-1.9-.9-3.3-.9h-3.4v10.9h2.9v-5h0l2.4,5h3.1l-2.4-4.9c.7-.3,1.1-.7,1.4-1.2ZM102.4,103.6v-2.6c.7,0,1.2,0,1.5.4.3.2.4.6.4,1.1,0,.7-.6,1-1.9,1.1ZM109.1,100.2c-1.1,1.1-1.6,2.4-1.6,4s.5,3.2,1.6,4.2c1.1,1.1,2.4,1.6,4.1,1.6s1.1,0,1.7-.3v-2.6c-.6.2-1,.2-1.5.2-.8,0-1.5-.3-2-.8-.5-.6-.8-1.3-.8-2.3s.3-1.7.8-2.2c.5-.6,1.1-.9,1.9-.9s1,0,1.6.2v-2.6c-.5,0-1.1-.2-1.7-.2-1.6.1-3,.6-4.1,1.7ZM118.7,107.4v-2h2.6v-2.3h-2.6v-2h3v-2.3h-6v10.9h6v-2.3h-3Z"/>
  </g>
  <g>
    <path class="st2" d="M85.5,33.3c3.1-.6,3.9,4.2.9,4.6s-3.7-4.1-.9-4.6Z"/>
    <g>
      <path class="st0" d="M4.5,40.5c.8-2.6,2.2-5.5,4.8-6.7,8.4-4,10.9,4.6,15.5,8.5s9.5-1.6,6.4-5.5-4.3-2-6.2-.4-1.3,1.6-1.6,1.6c-.3-.6-2.2-2.4-2.1-2.9,5.1-7.1,16.4-2.4,14.3,6.5-1.1,4.5-5.8,6.8-10.1,5.4-5-1.6-8-9.8-11.7-10.3s-4.4,1.2-5.1,3.2-.7,9.9-.5,12.5.2,2,.8,2.8c.9,1.2,6.1,4.2,7.7,5,2.6,1.3,4.2,1.5,6.8.3s9.6-5.6,10.4-6.9.4-1.3.4-1.4c0,0,1.8.2,2.3.2s.9-.3,1.4-.4c.3.3-.5,2.8-.8,3.2-1.1,2.2-8.5,6.6-11,7.9-2.8,1.4-5.1,2.2-8.3,1.5s-10.1-5-11.5-6.4-1.4-2.3-1.9-3.6v-14Z"/>
      <path class="st2" d="M102.3,42v-7.2c0,0,.3-.9.3-1,.9-1.8,3.8-1.1,3.9,1-.2,4.8.4,10,0,14.7s-1.8,5.6-5.4,6.4c-6.5,1.5-10-2.5-9.6-8.8.4-5.9,5.9-9.9,10.6-5.1ZM98.4,43.5c-3.7.8-3.6,9.4.9,9.3s3.6-4.5,3-6.9-2-2.8-3.8-2.4Z"/>
      <path class="st2" d="M52.2,53.9v8.1c0,.1-.5.9-.7,1-1.2,1-2.9.2-3.2-1.2.3-5-.5-10.6,0-15.5.8-7.7,12.4-8.9,14.4-1.5s.5,8.7-2.7,10.5-5.9.9-7.8-1.4ZM55,43.3c-2.7.5-2.8,4.1-2.5,6.2.5,4.2,6,4.3,6.5-.4s-.4-6.4-4-5.8Z"/>
      <path class="st2" d="M116.7,50.8c.5,0,.3,0,.4-.3,1.2-2.7,1.5-6.6,2.8-9.4,1.5-1.8,4.3-.5,3.6,1.8-2.1,5.5-3.1,12.3-5.4,17.6-.4,1-1.1,2.1-2.1,2.5-1.9.9-5.9.8-4.6-2.4s3.4,0,3.2-2.6l-4.6-15c-.7-2.9,3-4.1,4.1-1.2s1.6,6,2.5,8.8Z"/>
      <path class="st2" d="M76.2,53.7c-3.3,3.6-8.9,2.7-10.3-2.2s1.3-13.3,8.9-11.5,5.2,9.1,5.3,14.6c-.9,2.1-4,1.6-3.9-.8ZM72.1,43.2c-3.6.7-3.8,9.9,1.2,9.3s4.2-10.3-1.2-9.3Z"/>
      <path class="st2" d="M85.5,40.3c1.3-.3,2.5.6,2.7,1.9.4,3.7-.3,8.2,0,11.9-.3,2.1-4.1,2.4-4.5-.5-.4-3.5.3-7.8,0-11.4,0-.9,1-1.8,1.8-1.9Z"/>
      <path class="st0" d="M17.7,43.3l3.6,3.8c.2.2.2.5.2.7.2,1.7.2,5.4,0,7.1s-.7,2-2,2-1.8-.8-1.8-1.4v-12.2Z"/>
      <path class="st0" d="M35.2,46.3c3.1-.7,3.7,3.4,1.4,4s-3.7-3.4-1.4-4Z"/>
      <path class="st4" d="M55,43.3c3.6-.6,4.2,3.1,4,5.8-.5,4.6-6,4.5-6.5.4s-.1-5.7,2.5-6.2Z"/>
    </g>
  </g>
</svg>